<svg data-name="Layer 1" version="1.1" viewBox="0 0 664 306" xmlns="http://www.w3.org/2000/svg">
 <g transform="translate(-64 -153)">
  <path d="m728 284a131 131 0 1 0-131 131 131 131 0 0 0 131-131m-5.9 0a125 125 0 1 1-125-125 125 125 0 0 1 125 125" style="fill:#8a5e26"/>
  <path d="m597 171h25a30 30 0 0 1 17 5.8c3.6 2.4 7.2 4.6 11 6.9 4.2 2.7 8.4 5.4 13 8.1 3.3 2.1 6.7 4.2 10 6.3 2.5 1.6 5.1 3.2 7.6 4.9a29 29 0 0 1 5.8 5.6 27 27 0 0 1 3.5 6c1.5 3.3 3 6.5 4.5 9.8 1.9 4.1 3.8 8.3 5.6 12 0.65 1.4 1.4 2.8 2 4.3 0.88 1.9 1.7 3.8 2.6 5.7s1.8 4 2.8 6c1.1 2.3 2.1 4.7 3.2 7a37 37 0 0 1 1.8 6.3 23 23 0 0 1 0.32 7.4 58 58 0 0 1-1 6.1c-0.37 2.3-0.73 4.5-1.1 6.8q-0.54 3.7-1 7.3c-0.28 2-0.51 4-0.8 6.1s-0.65 4-0.94 6-0.53 4.2-0.84 6.2c-0.47 3.2-1 6.4-1.5 9.7-0.26 1.7-0.48 3.4-0.88 5a32 32 0 0 1-1.4 4.1c-2.1 5-6 8.6-9.4 13-3.8 4.5-7.8 9-12 13l-9.4 11c-2.8 3.1-5.4 6.4-8.3 9.3a23 23 0 0 1-9.8 5.9c-2.7 0.82-5.4 1.6-8.1 2.4-3.1 0.93-6.2 1.9-9.2 2.8s-5.9 1.7-8.9 2.5c-3.7 1.1-7.4 2.2-11 3.3-2.4 0.72-4.9 1.4-7.4 2l-7.8 2.1h-0.09a21 21 0 0 1-4 0.53 30 30 0 0 1-5.6-0.84c-2.8-0.69-5.5-1.6-8.3-2.4-2.2-0.63-4.4-1.2-6.6-1.9-2.5-0.73-5-1.5-7.5-2.2s-4.9-1.3-7.4-2c-1.4-0.39-2.7-0.88-4.1-1.3-2-0.58-3.9-1.1-5.9-1.7-1.3-0.37-2.6-0.79-3.8-1.2-1.5-0.43-3.1-0.79-4.6-1.2-4-1.2-7.9-2.7-11-5.4a62 62 0 0 1-5.6-5.6c-3.1-3.5-6.2-7-9.2-11-2.5-2.9-5-5.9-7.6-8.8-2.4-2.8-4.9-5.5-7.3-8.3-2.8-3.2-5.7-6.5-8.4-9.8a26 26 0 0 1-3.7-7.4c-0.92-2.4-1-5-1.4-7.5-0.65-4.2-1.2-8.5-1.8-13-0.4-2.8-0.79-5.6-1.2-8.3-0.46-3-1-6-1.4-9-0.52-3.6-1-7.1-1.5-11-0.43-3-0.93-5.9-1.3-8.9a6.7 6.7 0 0 1 0.29-1.6c0.17-1.3 0.32-2.6 0.47-3.9a26 26 0 0 1 2.8-8.1c1.2-2.5 2.2-5 3.4-7.5 1-2.3 2.1-4.5 3.2-6.8 1.1-2.4 2.2-4.9 3.3-7.4 0.83-1.8 1.7-3.6 2.6-5.5 1.1-2.5 2.2-5 3.4-7.5 0.83-1.8 1.7-3.6 2.6-5.4 0.65-1.4 1.3-2.8 1.9-4.2a26 26 0 0 1 4-5.8 31 31 0 0 1 7.6-6.2c4.5-2.8 9-5.8 14-8.7 4.1-2.6 8.3-5.2 12-7.9 2-1.2 3.8-2.6 5.8-3.8 3.5-2.2 7-4.6 11-6.6a41 41 0 0 1 5.6-2.1c3.3-1.3 6.8-1 10-1h22m70 44a28 28 0 0 0 0-2.9 7.6 7.6 0 0 0-1.4-4.3c-1.2-1.4-3.8-1.2-4.4 0.4-0.4 1.1-0.73 2.2-1.2 3.2a44 44 0 0 1-2 4.3 24 24 0 0 1-5.2 6.4c-2.6 2.2-5.1 4.4-7.8 6.4a42 42 0 0 1-9.7 5.3c-0.55 0.22-1.4 0.65-1.7 0a2.5 2.5 0 0 0-2.2-1.2 30 30 0 0 0-5.6-0.55c-3.7 0.2-7.4 0.89-11 0.85a33 33 0 0 1-9.7-1.6 40 40 0 0 0-5.4-1.1 5.2 5.2 0 0 0-4 1.1 9.6 9.6 0 0 1-4.6 1.9c-0.81 0.1-1.6 0.4-2.4 0.47-1.6 0.14-3.3 0.26-4.9 0.24-2 0-4-0.32-6-0.28s-4.3 0.34-6.4 0.55a33 33 0 0 0-3.4 0.48 22 22 0 0 0-2.1 0.79 3.5 3.5 0 0 1-1.6 0.26 8.3 8.3 0 0 1-2.1-0.74 48 48 0 0 1-9.4-5.6 37 37 0 0 1-12-15c-1-2.4-1.8-3-4.5-2.9h-0.43a4.8 4.8 0 0 0-3.6 3.2 24 24 0 0 0 1 11 38 38 0 0 0 2.7 6.2 34 34 0 0 0 6.5 8.7c2.5 2.4 5.1 4.7 7.8 6.9a26 26 0 0 0 7.7 4.4 1.3 1.3 0 0 1 0.71 0.9 9.2 9.2 0 0 0 1.1 3.2 3.6 3.6 0 0 1-0.13 4 12 12 0 0 0-1.7 2.4c-0.89 2-1.7 4.1-2.4 6.2-0.58 1.6-0.68 1.8-2.4 1.6-2.4-0.2-4.7-0.44-7.1-0.67a11 11 0 0 0-5.6 1.2 21 21 0 0 0-5.6 3.9c-4.4 4-9 7.9-13 12-2.1 1.9-4.2 4-6.1 6.1a28 28 0 0 0-4.9 8.1c-1.1 2.4-1.6 4.8-0.45 7.3a4.1 4.1 0 0 0 1.8 2 12 12 0 0 0 4.6 1.2 28 28 0 0 0 8.4-0.38 43 43 0 0 1 11-0.75 65 65 0 0 0 7.6 0 48 48 0 0 0 4.8-0.83 12 12 0 0 0 5.6-2.6 33 33 0 0 0 6-6.6c0.32-0.44 0.67-1 1.3-0.72a1.7 1.7 0 0 1 0.55 1.2c0.26 3.2 0.39 6.4 0.7 9.5 0.28 2.9 0.68 5.7 1.1 8.6 0.43 2.6 1.1 5.1 1.3 7.8 0.23 2.9-0.82 5.3-2.2 7.7a28 28 0 0 0-1.6 3c-0.43 1-0.64 2-1 3-0.83 2.1-1.8 4.2-2.6 6.4a8.6 8.6 0 0 0-0.68 5.2c0.38 1.5 0.83 3.1 1.4 4.6a18 18 0 0 1 1.5 5.5c0.08 2.2 1.7 3.5 3.9 2.7 1.9-0.69 3.8-0.15 5.7 0.27 0.27 0.06 0.5 0.35 0.71 0.58 0.92 1 1.8 2 2.7 3 1.6 1.7 3.7 2 5.9 1.9q3.7-0.13 7.4-0.24a39 39 0 0 0 4.3-0.1c2.1-0.29 4.2-0.49 5.9-2a22 22 0 0 0 2.5-2.8 2.3 2.3 0 0 1 1.9-1.1c0.94 0 1.9-0.1 2.8-0.18 2-0.16 3.8-0.7 4.7-2.6a14 14 0 0 0 1-3.5 7.8 7.8 0 0 1 2.8-4.6c1.6-1.4 3.2-2.7 4.7-4.2 3.6-3.6 5.8-8.1 8-13 2.3-4.7 3-9.7 3.4-15 0.22-3.3 0.5-6.6 1-9.9 0.53-3.7 1.3-7.3 2-11 0-0.28 0.42-0.49 0.65-0.72 0.21 0.25 0.55 0.47 0.62 0.75a7.6 7.6 0 0 0 3.9 5.4 42 42 0 0 0 6.4 2.7 19 19 0 0 0 7 1.1c1.6-0.09 3.1-0.3 4.6-0.47a28 28 0 0 1 8.5 0.51c2.2 0.43 4.3 1.1 6.6 0.51a19 19 0 0 1 6.4-0.79 0.52 0.52 0 0 0 0.25 0 8.8 8.8 0 0 0 2.5-1.4 4.4 4.4 0 0 0 0.9-3.4 17 17 0 0 0-2.7-6.8 78 78 0 0 0-4.7-7 69 69 0 0 0-5.4-6.4c-2.2-2.2-4.6-4.3-6.8-6.4-2.7-2.5-5.3-4.9-8-7.4a8.1 8.1 0 0 0-1.9-1.1 9.8 9.8 0 0 0-4.5-0.55 1.5 1.5 0 0 1-1.5-0.88c-0.6-1.1-1.3-2.2-1.9-3.2a11 11 0 0 0-4-4.2 6.1 6.1 0 0 1-1.4-1.3c-0.86-1-0.94-1.6-0.15-2.7 1.2-1.5 2.4-3 3.7-4.5a3.6 3.6 0 0 1 0.85-0.69c3.2-2 6.6-3.9 9.7-6a49 49 0 0 0 6.7-5.4 35 35 0 0 0 10-25m-45-41-0.06 0.19h-0.68a1.6 1.6 0 1 0-0.14 3.2c0.59 0 1.2 0.06 1.8 0.08a1.7 1.7 0 0 0 1.6-1.1 1.2 1.2 0 0 0-0.47-1.6 11 11 0 0 0-2-0.71m-84 202a2.1 2.1 0 0 0-1.9-1.7 1.7 1.7 0 0 0-1.6 1.5 2.1 2.1 0 0 0 1.9 1.9 1.8 1.8 0 0 0 1.6-1.7m-29-163a1.7 1.7 0 0 0 1.6 1.6 2 2 0 0 0 1.7-2 1.6 1.6 0 0 0-1.6-1.5 1.9 1.9 0 0 0-1.7 1.9m185 124a1.7 1.7 0 0 0-1.6-1.7 2.4 2.4 0 0 0-1.9 1.9 1.9 1.9 0 0 0 1.6 1.6 2.1 2.1 0 0 0 1.8-1.9m-103 58a1.7 1.7 0 0 0 1.7-1.6 1.9 1.9 0 0 0-1.9-1.6 1.7 1.7 0 0 0-1.8 1.6 1.9 1.9 0 0 0 2 1.6m-60-21a1.6 1.6 0 0 0 1.6-1.5 2.1 2.1 0 0 0-2-1.9 1.5 1.5 0 0 0-1.5 1.5 1.8 1.8 0 0 0 1.8 1.8m149-22a2.2 2.2 0 0 0 1.8-1.9 2 2 0 0 0-1.7-1.6 2 2 0 0 0-1.7 1.9 1.7 1.7 0 0 0 1.7 1.6m-174-9.2a2 2 0 0 0-1.8-1.9 1.8 1.8 0 0 0-1.6 1.6 2.3 2.3 0 0 0 1.9 1.9 1.7 1.7 0 0 0 1.5-1.6m151 32a1.9 1.9 0 0 0-2 1.7 1.7 1.7 0 0 0 1.5 1.6 2.6 2.6 0 0 0 2-1.8 1.7 1.7 0 0 0-1.6-1.6m-111 8.4a1.7 1.7 0 0 0 1.7-1.5 2.1 2.1 0 0 0-2-1.8 1.7 1.7 0 0 0-1.6 1.6 1.7 1.7 0 0 0 1.9 1.6m148-144a2.1 2.1 0 0 0-1.7-2 1.7 1.7 0 0 0-1.6 1.6 2 2 0 0 0 1.7 2 1.8 1.8 0 0 0 1.6-1.5m-114 152a1.9 1.9 0 0 0-1.9-1.8 1.8 1.8 0 0 0-1.7 1.6 2.2 2.2 0 0 0 1.8 1.7 1.8 1.8 0 0 0 1.7-1.6m-12-213c1.1 0 1.8-0.61 1.8-1.6a1.6 1.6 0 0 0-1.6-1.6 1.8 1.8 0 0 0-1.9 1.7c0 0.92 0.66 1.5 1.7 1.5m-60 40a1.8 1.8 0 0 0-1.6-1.7 2.1 2.1 0 0 0-1.7 1.9 1.8 1.8 0 0 0 1.5 1.8 2 2 0 0 0 1.7-2m195 52a1.6 1.6 0 1 0 3.2 0.14 1.8 1.8 0 0 0-1.7-1.8 1.5 1.5 0 0 0-1.5 1.7m-131 117a1.7 1.7 0 0 0-1.7 1.6 2.2 2.2 0 0 0 2 1.7 1.9 1.9 0 0 0 1.6-1.7 1.8 1.8 0 0 0-1.9-1.6m-86-88c0 1.1 0.59 1.8 1.4 1.8a1.7 1.7 0 0 0 1.8-1.7 1.9 1.9 0 0 0-1.8-1.8 1.6 1.6 0 0 0-1.4 1.7m1.2-45a1.7 1.7 0 0 0 1.5 1.7 2 2 0 0 0 1.7-2 1.6 1.6 0 0 0-1.5-1.5 1.9 1.9 0 0 0-1.7 1.8m189-47a1.9 1.9 0 0 0-1.9-1.8 1.7 1.7 0 0 0-1.5 1.7 2.1 2.1 0 0 0 1.9 1.7 1.5 1.5 0 0 0 1.5-1.6m-178 24a2 2 0 0 0-1.8 2 1.6 1.6 0 0 0 1.6 1.6 2.1 2.1 0 0 0 1.7-2 1.8 1.8 0 0 0-1.5-1.6m68 157a1.5 1.5 0 0 0 1.6-1.5 2 2 0 0 0-1.9-1.8 1.6 1.6 0 0 0-1.6 1.7c0 0.89 0.79 1.5 1.9 1.5m-42-22a1.6 1.6 0 0 0-1.6 1.6 2 2 0 0 0 1.8 1.8 1.8 1.8 0 0 0 1.7-1.5 1.9 1.9 0 0 0-1.9-1.9m121-179a1.7 1.7 0 0 0-1.7 1.5 2.1 2.1 0 0 0 1.9 1.8 1.7 1.7 0 0 0 1.6-1.6 2 2 0 0 0-1.9-1.7m-88-7.1a1.8 1.8 0 0 0-1.5-1.6 2.4 2.4 0 0 0-2 1.8 1.8 1.8 0 0 0 1.6 1.6 2.1 2.1 0 0 0 1.9-1.8m106 189a2 2 0 0 0 1.7-1.8 1.6 1.6 0 0 0-1.5-1.6 2.1 2.1 0 0 0-1.8 2 1.7 1.7 0 0 0 1.7 1.4m-151-159a2.1 2.1 0 0 0 1.9-1.7 1.7 1.7 0 0 0-1.7-1.5 2 2 0 0 0-1.8 1.8 1.6 1.6 0 0 0 1.6 1.5m-25 86c1 0 1.6-0.65 1.6-1.8a1.9 1.9 0 0 0-1.6-1.8 1.7 1.7 0 0 0-1.6 1.6 1.8 1.8 0 0 0 1.6 1.9m212 2.8a1.6 1.6 0 0 0 1.5 1.6 1.8 1.8 0 0 0 1.7-1.8 1.6 1.6 0 1 0-3.2 0.17m-3.9 33a1.6 1.6 0 0 0-1.6-1.5 2 2 0 0 0-1.8 1.8 2 2 0 0 0 1.6 1.7c0.71 0 1.8-1.2 1.8-2m-204-21a1.8 1.8 0 0 0-1.6-1.8 1.8 1.8 0 0 0-1.6 1.9 1.8 1.8 0 0 0 1.6 1.7 1.8 1.8 0 0 0 1.6-1.7m207 16a1.7 1.7 0 0 0-1.6-1.7 1.9 1.9 0 0 0-1.6 1.8 1.8 1.8 0 0 0 1.5 1.7 1.9 1.9 0 0 0 1.7-1.9m-203 1.3a1.7 1.7 0 0 0-1.8-1.8 1.6 1.6 0 0 0-1.5 1.6c0 1 0.9 2 1.7 2a1.7 1.7 0 0 0 1.5-1.8m208-39a1.8 1.8 0 0 0 1.6-1.9 1.7 1.7 0 0 0-1.6-1.7 1.8 1.8 0 0 0-1.6 2 1.6 1.6 0 0 0 1.6 1.5m-192 60a1.5 1.5 0 0 0-1.6 1.4 2.2 2.2 0 0 0 1.8 1.9 1.7 1.7 0 1 0-0.17-3.3m-18-27a2 2 0 0 0-1.7-1.9 1.8 1.8 0 0 0 0.16 3.6 1.8 1.8 0 0 0 1.6-1.7m-7.6-63a1.6 1.6 0 0 0 1.5 1.7 1.8 1.8 0 0 0 1.7-1.9 1.6 1.6 0 0 0-1.6-1.6 1.8 1.8 0 0 0-1.7 1.8m218-1a1.9 1.9 0 0 0-1.7-1.9 1.7 1.7 0 0 0-1.6 1.6 2 2 0 0 0 1.7 1.9 1.6 1.6 0 0 0 1.6-1.6m-69 127a2.1 2.1 0 0 0 2.1-1.6 1.8 1.8 0 0 0-1.6-1.6 2 2 0 0 0-2 1.6 1.7 1.7 0 0 0 1.6 1.6m-39 7.3a1.9 1.9 0 0 0-1.9 1.4 2 2 0 0 0 1.8 1.8 1.7 1.7 0 0 0 1.8-1.6 1.5 1.5 0 0 0-1.6-1.6m67-194a2.4 2.4 0 0 0-2-1.9 1.8 1.8 0 0 0-1.5 1.7 2.2 2.2 0 0 0 1.8 1.7 1.9 1.9 0 0 0 1.7-1.5m18 14a1.6 1.6 0 0 0-1.7-1.8 1.5 1.5 0 0 0-1.6 1.6 2.1 2.1 0 0 0 1.8 1.8 1.5 1.5 0 0 0 1.5-1.6m-118-35a1.5 1.5 0 0 0-1.6-1.5 1.7 1.7 0 0 0-1.8 1.6 1.6 1.6 0 0 0 1.5 1.7 1.9 1.9 0 0 0 1.9-1.8m44-3.1c-0.93 0-2 0.76-2 1.5a2 2 0 0 0 1.9 1.7 1.8 1.8 0 0 0 1.7-1.6 1.6 1.6 0 0 0-1.6-1.6m79 48a2.1 2.1 0 0 0-1.7-1.9 1.6 1.6 0 0 0-1.6 1.6 2.1 2.1 0 0 0 1.7 2 1.9 1.9 0 0 0 1.6-1.6m-65 164a1.6 1.6 0 0 0 1.6 1.6 2 2 0 0 0 1.9-1.7 1.9 1.9 0 0 0-1.6-1.6 1.8 1.8 0 0 0-1.9 1.7m78-132a1.7 1.7 0 0 0 1.6-1.5 2.1 2.1 0 0 0-1.8-1.9 1.8 1.8 0 0 0-1.6 1.6 1.9 1.9 0 0 0 1.8 1.8m-211 34a1.7 1.7 0 0 0-1.6-1.8 1.6 1.6 0 0 0-1.6 1.6 1.9 1.9 0 0 0 1.7 1.9 1.7 1.7 0 0 0 1.5-1.7m210-40a1.8 1.8 0 0 0-1.6-1.9 1.6 1.6 0 0 0-1.8 1.4 2.2 2.2 0 0 0 1.6 2 1.8 1.8 0 0 0 1.7-1.6m-206-4c0 0.91 0.61 1.4 1.6 1.4a1.8 1.8 0 0 0 1.6-1.8 1.6 1.6 0 0 0-1.6-1.6 1.9 1.9 0 0 0-1.7 2m190 103a1.9 1.9 0 0 0 1.8-1.9 1.5 1.5 0 0 0-1.5-1.5 1.8 1.8 0 0 0-1.8 1.9 1.4 1.4 0 0 0 1.5 1.5m-71 44c1 0 2-0.8 2-1.6a1.8 1.8 0 0 0-1.6-1.6 2.1 2.1 0 0 0-2 1.6 1.7 1.7 0 0 0 1.6 1.6m-61-7.7a1.7 1.7 0 0 0 1.7-1.6 2 2 0 0 0-2-1.6 1.8 1.8 0 0 0-1.6 1.6 2 2 0 0 0 1.9 1.6m91-1.9a1.8 1.8 0 0 0-1.6-1.7 2 2 0 0 0-1.9 1.7 1.8 1.8 0 0 0 1.6 1.6 1.9 1.9 0 0 0 1.9-1.6m59-76a1.8 1.8 0 0 0 1.6-1.8 1.9 1.9 0 0 0-1.6-1.7 2 2 0 0 0-1.7 1.8 1.7 1.7 0 0 0 1.6 1.7m-1.6 11a1.7 1.7 0 0 0 0.08-3.5 1.7 1.7 0 0 0-1.6 1.8 1.4 1.4 0 0 0 1.5 1.6m-31-116a2 2 0 0 0-1.9-1.7 1.5 1.5 0 0 0-1.6 1.5 1.9 1.9 0 0 0 1.8 1.9 1.8 1.8 0 0 0 1.6-1.6m-126 178a1.8 1.8 0 0 0-1.8-1.7 1.8 1.8 0 0 0-1.6 1.7 1.9 1.9 0 0 0 1.9 1.6 1.6 1.6 0 0 0 1.6-1.6m72-205a1.6 1.6 0 0 0-1.7 1.5 1.6 1.6 0 0 0 1.7 1.7 1.8 1.8 0 0 0 1.8-1.7 1.7 1.7 0 0 0-1.8-1.5m21 5.4a1.9 1.9 0 0 0-1.9-1.8 1.6 1.6 0 0 0-1.5 1.7 2.1 2.1 0 0 0 1.9 1.7 1.6 1.6 0 0 0 1.5-1.6m-134 160a1.5 1.5 0 0 0 1.6-1.4 2.1 2.1 0 0 0-1.9-1.8 1.6 1.6 0 0 0-1.6 1.5 2 2 0 0 0 1.9 1.8m51-158a2.1 2.1 0 0 0-1.8 1.8 1.9 1.9 0 0 0 1.7 1.5 2.2 2.2 0 0 0 1.8-1.8 1.7 1.7 0 0 0-1.7-1.5m117 180a1.9 1.9 0 0 0-1.8 1.9 1.6 1.6 0 0 0 1.6 1.4 2.2 2.2 0 0 0 1.9-1.8 1.7 1.7 0 0 0-1.7-1.5m-25-175a1.8 1.8 0 0 0-1.6-1.7 1.6 1.6 0 0 0-1.7 1.6 2.2 2.2 0 0 0 1.9 1.8 1.6 1.6 0 0 0 1.4-1.7m-129 168a1.7 1.7 0 0 0-1.6 1.6 1.9 1.9 0 0 0 1.9 1.8 1.6 1.6 0 0 0 1.6-1.5 2.1 2.1 0 0 0-1.9-1.8m6.5-152a1.7 1.7 0 0 0 1.5 1.7 2.2 2.2 0 0 0 1.9-1.9 1.5 1.5 0 0 0-1.4-1.5 1.9 1.9 0 0 0-2 1.7m-3.2 4.7a1.9 1.9 0 0 0 1.9-1.7 1.6 1.6 0 0 0-1.8-1.5 1.7 1.7 0 0 0-1.6 1.6 1.4 1.4 0 0 0 1.5 1.6m172 28a1.6 1.6 0 0 0 1.7-1.6 2 2 0 0 0-1.7-1.9 1.6 1.6 0 0 0-1.6 1.6 1.8 1.8 0 0 0 1.7 1.8m12 47a1.6 1.6 0 0 0 1.5 1.7 1.7 1.7 0 0 0 1.7-1.8 1.6 1.6 0 0 0-1.5-1.6 1.6 1.6 0 0 0-1.7 1.7m-123-107a1.8 1.8 0 0 0-1.8 1.5 1.9 1.9 0 0 0 1.8 1.7 2 2 0 0 0 1.8-1.6c0.06-0.77-0.87-1.6-1.8-1.6m17 3.2a1.7 1.7 0 0 0 1.7-1.6 1.6 1.6 0 0 0-1.8-1.6 1.8 1.8 0 0 0-1.8 1.6 1.8 1.8 0 0 0 1.8 1.6m-103 72a1.5 1.5 0 0 0-1.5-1.6 1.7 1.7 0 0 0-1.8 1.8 1.6 1.6 0 0 0 1.6 1.6 1.8 1.8 0 0 0 1.7-1.8m-8.3 14c-1 0-1.6 0.66-1.7 1.8a1.6 1.6 0 0 0 1.5 1.7 1.8 1.8 0 0 0 1.8-1.8 1.6 1.6 0 0 0-1.6-1.7m33 98a1.5 1.5 0 0 0 1.6-1.5 2.2 2.2 0 0 0-1.9-1.8 1.5 1.5 0 0 0-1.5 1.6 1.7 1.7 0 0 0 1.8 1.8m158-7a1.6 1.6 0 0 0-1.5-1.6 2.2 2.2 0 0 0-1.8 1.7 1.8 1.8 0 0 0 1.6 1.7 1.9 1.9 0 0 0 1.8-1.9m-153 9.9a2 2 0 0 0-1.7-1.9 1.7 1.7 0 0 0-1.5 1.5 2 2 0 0 0 1.7 1.9 1.6 1.6 0 0 0 1.6-1.5m18-173a1.9 1.9 0 0 0 1.9-1.8 1.6 1.6 0 0 0-1.5-1.5 1.9 1.9 0 0 0-1.9 1.7 1.7 1.7 0 0 0 1.6 1.6m164 73c0-1.2-0.58-1.8-1.5-1.8a1.7 1.7 0 0 0-1.7 1.6 1.8 1.8 0 0 0 1.7 1.9c1 0 1.5-0.54 1.5-1.6m-103-90c-1.2 0-1.8 0.52-1.8 1.6a1.6 1.6 0 0 0 1.7 1.6 1.6 1.6 0 0 0 1.8-1.6 1.5 1.5 0 0 0-1.7-1.5m51 204a1.9 1.9 0 0 0-1.6-1.6 2.4 2.4 0 0 0-1.9 1.8 1.8 1.8 0 0 0 1.6 1.6 2.1 2.1 0 0 0 1.9-1.7m52-104a1.7 1.7 0 0 0-1.6 1.8 1.7 1.7 0 0 0 1.6 1.7 1.9 1.9 0 0 0 1.6-1.8 1.8 1.8 0 0 0-1.7-1.7m-219 1.2a1.6 1.6 0 0 0-1.5 1.6 1.8 1.8 0 0 0 1.6 1.9 1.6 1.6 0 0 0 1.6-1.7c0-1.2-0.65-1.9-1.6-1.8m162 105a1.4 1.4 0 0 0-1.5-1.5c-1.3 0-1.9 0.56-1.9 1.6a1.6 1.6 0 0 0 1.7 1.6 1.8 1.8 0 0 0 1.7-1.7m-162-98a1.7 1.7 0 0 0 1.6 1.9 1.7 1.7 0 0 0 1.5-1.7 1.8 1.8 0 0 0-1.6-1.8 1.6 1.6 0 0 0-1.5 1.7m217 27a1.7 1.7 0 0 0-1.5-1.7 1.9 1.9 0 0 0-1.6 1.9 1.7 1.7 0 0 0 1.6 1.6 1.8 1.8 0 0 0 1.6-1.9m2.4-17a1.6 1.6 0 0 0-1.4-1.8 1.9 1.9 0 0 0-1.8 1.8 1.8 1.8 0 0 0 1.6 1.7 1.6 1.6 0 0 0 1.6-1.8m-45 79a1.7 1.7 0 0 0 1.5 1.7 2 2 0 0 0 1.8-1.8 1.7 1.7 0 0 0-1.5-1.7 2.1 2.1 0 0 0-1.8 1.9m-95 14a1.7 1.7 0 0 0-1.8-1.7 1.6 1.6 0 0 0-1.6 1.6 1.8 1.8 0 0 0 1.9 1.6 1.5 1.5 0 0 0 1.4-1.5m10-211a1.6 1.6 0 0 0-1.8 1.6 1.7 1.7 0 0 0 1.7 1.6 1.7 1.7 0 0 0 1.8-1.7 1.7 1.7 0 0 0-1.7-1.6m97 184a1.4 1.4 0 0 0 1.4 1.5 2 2 0 0 0 1.8-1.7 1.7 1.7 0 0 0-1.5-1.7c-0.7 0-1.9 1-1.8 1.9m26-116a2.1 2.1 0 0 0-1.7-1.9 1.7 1.7 0 0 0-1.6 1.6 1.9 1.9 0 0 0 1.7 1.8 1.7 1.7 0 0 0 1.6-1.5m-204 74a1.6 1.6 0 0 0-1.6-1.8 1.6 1.6 0 0 0-1.6 1.6 1.7 1.7 0 0 0 1.6 1.8 1.6 1.6 0 0 0 1.6-1.6m45-123a1.8 1.8 0 0 0 1.9-1.6 1.6 1.6 0 0 0-1.5-1.6 2 2 0 0 0-1.9 1.8 1.5 1.5 0 0 0 1.5 1.5m119 2.4a1.6 1.6 0 0 0 1.6-1.5c0-0.79-1.2-1.8-2.1-1.8a1.7 1.7 0 0 0-1.5 1.5 1.9 1.9 0 0 0 1.9 1.8m-53 197a1.5 1.5 0 0 0-1.5-1.7 1.8 1.8 0 0 0-1.8 1.7c0 0.93 0.55 1.6 1.4 1.6 1.2-0.09 2-0.41 2-1.6m67-191a1.5 1.5 0 0 0-1.5 1.5 1.8 1.8 0 0 0 1.8 1.8 1.6 1.6 0 0 0 1.6-1.5 2 2 0 0 0-1.8-1.9m-180 103a1.5 1.5 0 0 0-1.6-1.7 1.5 1.5 0 0 0-1.6 1.6 1.9 1.9 0 0 0 1.7 1.8 1.6 1.6 0 0 0 1.6-1.7m38-107a1.6 1.6 0 0 0-1.5-1.6 2 2 0 0 0-1.9 1.8 1.6 1.6 0 0 0 1.6 1.5 2 2 0 0 0 1.8-1.7m108-18a1.7 1.7 0 0 0-1.6 1.6 1.8 1.8 0 0 0 1.9 1.7 1.7 1.7 0 0 0 1.6-1.5 2.2 2.2 0 0 0-1.9-1.8m-105 16a1.6 1.6 0 1 0 0.27-3.3 2 2 0 0 0-1.8 1.8 1.4 1.4 0 0 0 1.5 1.4m119-3.7a1.5 1.5 0 0 0 1.6-1.6 1.9 1.9 0 0 0-2-1.6 1.9 1.9 0 0 0-1.6 1.5 2 2 0 0 0 1.9 1.7m-153 45a1.6 1.6 0 0 0-1.5-1.7 2 2 0 0 0-1.7 1.9 1.7 1.7 0 0 0 1.6 1.6 1.9 1.9 0 0 0 1.7-1.8m186-21a2.2 2.2 0 0 0-1.7-2 1.8 1.8 0 0 0 0 3.5 1.8 1.8 0 0 0 1.7-1.5m-136-31a1.7 1.7 0 0 0-1.6-1.6 2.2 2.2 0 0 0-1.9 1.8 1.8 1.8 0 0 0 1.6 1.5 1.9 1.9 0 0 0 1.9-1.8m-51 147a1.9 1.9 0 0 0-1.8-1.9 1.5 1.5 0 0 0-1.5 1.5 1.9 1.9 0 0 0 1.8 1.9 1.6 1.6 0 0 0 1.4-1.6m111 58a1.6 1.6 0 0 0-1.6-1.6 1.8 1.8 0 0 0-1.9 1.7 1.8 1.8 0 0 0 1.6 1.6 2 2 0 0 0 1.9-1.7m22-6.5a1.6 1.6 0 0 0-1.6-1.5 1.9 1.9 0 0 0-2 1.6 1.7 1.7 0 0 0 1.6 1.6 1.9 1.9 0 0 0 1.9-1.7m-125-162a1.5 1.5 0 0 0-1.5-1.6 1.9 1.9 0 0 0-1.7 1.9 1.4 1.4 0 0 0 1.6 1.5 1.7 1.7 0 0 0 1.6-1.8m3.5 124a1.9 1.9 0 0 0-1.8-1.9 1.8 1.8 0 0 0-1.6 1.6 2.2 2.2 0 0 0 1.8 1.8 1.7 1.7 0 0 0 1.6-1.5m76-172c-1.1 0-1.8 0.6-1.8 1.5a1.7 1.7 0 0 0 1.7 1.7 1.6 1.6 0 0 0 1.7-1.7 1.4 1.4 0 0 0-1.6-1.5m-82 54a1.4 1.4 0 0 0-1.5-1.5 1.6 1.6 0 0 0-1.6 1.8 1.5 1.5 0 0 0 1.5 1.6 1.6 1.6 0 0 0 1.7-1.8m115 162a1.9 1.9 0 0 0 1.9-1.7 1.6 1.6 0 0 0-1.6-1.6 1.9 1.9 0 0 0-1.9 1.7 1.7 1.7 0 0 0 1.6 1.6m-133-121a1.7 1.7 0 0 0-1.8 1.6 2.1 2.1 0 0 0 1.6 1.9 1.8 1.8 0 0 0 1.6-1.7 1.6 1.6 0 0 0-1.5-1.8m215 51a1.7 1.7 0 0 0-1.7-1.8 1.7 1.7 0 0 0-1.6 1.9 1.8 1.8 0 0 0 1.6 1.6 2 2 0 0 0 1.7-1.7m-73-142a1.6 1.6 0 0 0 1.6-1.5 1.8 1.8 0 0 0-3.5-0.13 1.8 1.8 0 0 0 1.9 1.7m-36-4.4a1.6 1.6 0 0 0-1.8 1.4 1.7 1.7 0 0 0 1.7 1.8 1.8 1.8 0 0 0 1.8-1.6 1.7 1.7 0 0 0-1.7-1.6m-33 210a1.9 1.9 0 0 0-2-1.6 1.5 1.5 0 0 0-1.5 1.5 2.1 2.1 0 0 0 2 1.7 1.7 1.7 0 0 0 1.5-1.6m130-43a1.6 1.6 0 0 0-1.5-1.6 2.1 2.1 0 0 0-1.8 1.9 1.7 1.7 0 0 0 1.6 1.6 1.9 1.9 0 0 0 1.7-1.8m-104 52c1.1 0 1.7-0.56 1.7-1.5a1.8 1.8 0 0 0-1.9-1.7 1.5 1.5 0 0 0-1.5 1.6c0 1 0.58 1.6 1.7 1.6m104-164a1.6 1.6 0 0 0 1.5-1.5 1.9 1.9 0 0 0-1.8-1.9 1.6 1.6 0 0 0-1.4 1.4 1.7 1.7 0 0 0 1.8 1.9" style="fill:#8a5e26"/>
  <rect x="436" y="156" width="5.3" height="252" style="fill:#8a5e26"/>
  <path d="m260 154h-4v62h33v-4h-29zm41 62h4v-62h-4zm62-62-22 62h-4.2l-22-62h4.2l20 56 20-56zm12 58v-19h24v-4h-24v-31h31v-4h-35v62h36v-4z" style="fill:#8a5e26"/>
  <path d="m260 154h-4v62h33v-4h-29zm41 62h4v-62h-4zm62-62-22 62h-4.2l-22-62h4.2l20 56 20-56zm12 58v-19h24v-4h-24v-31h31v-4h-35v62h36v-4z" style="fill:none;stroke-miterlimit:10;stroke-width:3px;stroke:#8a5e26"/>
  <path d="m260 154h-4v62h33v-4h-29zm41 62h4v-62h-4zm62-62-22 62h-4.2l-22-62h4.2l20 56 20-56zm12 58v-19h24v-4h-24v-31h31v-4h-35v62h36v-4z" style="fill:none;stroke-miterlimit:5.5;stroke-width:3px;stroke:#8a5e26"/>
  <path d="m182 296a17 17 0 0 0-6.9-13c-4-3-7.8-3.9-11-4.7s-6.6-1.6-9.2-4.3-4-5.7-3.9-8.7a10 10 0 0 1 3.6-7.3 15 15 0 0 1 19 0.27 11 11 0 0 1 3 4.3l4-0.62a15 15 0 0 0-4.4-6.7 18 18 0 0 0-12-4.5 18 18 0 0 0-12 4.4 14 14 0 0 0-4.8 9.9c-0.18 4.1 1.7 8.3 5 12 3.5 3.6 7.5 4.5 11 5.4 3.2 0.79 6.4 1.5 9.8 4a12 12 0 0 1 5.2 9.7 14 14 0 0 1-4.3 11 15 15 0 0 1-19 0.27 11 11 0 0 1-4.1-7.2l-4 0.61a16 16 0 0 0 5.4 9.7 19 19 0 0 0 12 4.2h0.44a18 18 0 0 0 12-4.4l0.53-0.53a18 18 0 0 0 5.4-14m46-44h-39v4h18v58h4v-58h18zm35 63h-1.1a30 30 0 0 1-21-9.4 33 33 0 0 1 0-45 30 30 0 0 1 21-9.4h1.1a30 30 0 0 1 21 9.4 33 33 0 0 1 0 45 30 30 0 0 1-21 9.4m-0.62-60c-15 0.35-26 13-26 28s12 28 26 28c15-0.35 26-13 26-28s-12-28-26-28m90 45a27 27 0 0 1-21 12c-15-0.35-26-13-26-28s12-27 26-28a27 27 0 0 1 21 12l3.7-1.7a27 27 0 0 0-3.7-4.6 30 30 0 0 0-21-9.3h-1.2a30 30 0 0 0-21 9.3 32 32 0 0 0 0 45 30 30 0 0 0 21 9.3h1.2a30 30 0 0 0 21-9.3 27 27 0 0 0 3.7-4.6zm22-17 31-30h-5.7l-28 27v-27h-4v62h4v-29l29 29h5.6z" style="fill:#8a5e26"/>
  <path d="m182 296a17 17 0 0 0-6.9-13c-4-3-7.8-3.9-11-4.7s-6.6-1.6-9.2-4.3-4-5.7-3.9-8.7a10 10 0 0 1 3.6-7.3 15 15 0 0 1 19 0.27 11 11 0 0 1 3 4.3l4-0.62a15 15 0 0 0-4.4-6.7 18 18 0 0 0-12-4.5 18 18 0 0 0-12 4.4 14 14 0 0 0-4.8 9.9c-0.18 4.1 1.7 8.3 5 12 3.5 3.6 7.5 4.5 11 5.4 3.2 0.79 6.4 1.5 9.8 4a12 12 0 0 1 5.2 9.7 14 14 0 0 1-4.3 11 15 15 0 0 1-19 0.27 11 11 0 0 1-4.1-7.2l-4 0.61a16 16 0 0 0 5.4 9.7 19 19 0 0 0 12 4.2h0.44a18 18 0 0 0 12-4.4l0.53-0.53a18 18 0 0 0 5.4-14m46-44h-39v4h18v58h4v-58h18zm35 63h-1.1a30 30 0 0 1-21-9.4 33 33 0 0 1 0-45 30 30 0 0 1 21-9.4h1.1a30 30 0 0 1 21 9.4 33 33 0 0 1 0 45 30 30 0 0 1-21 9.4m-0.62-60c-15 0.35-26 13-26 28s12 28 26 28c15-0.35 26-13 26-28s-12-28-26-28m90 45a27 27 0 0 1-21 12c-15-0.35-26-13-26-28s12-27 26-28a27 27 0 0 1 21 12l3.7-1.7a27 27 0 0 0-3.7-4.6 30 30 0 0 0-21-9.3h-1.2a30 30 0 0 0-21 9.3 32 32 0 0 0 0 45 30 30 0 0 0 21 9.3h1.2a30 30 0 0 0 21-9.3 27 27 0 0 0 3.7-4.6zm22-17 31-30h-5.7l-28 27v-27h-4v62h4v-29l29 29h5.6z" style="fill:none;stroke-miterlimit:10;stroke-width:3px;stroke:#8a5e26"/>
  <path d="m182 296a17 17 0 0 0-6.9-13c-4-3-7.8-3.9-11-4.7s-6.6-1.6-9.2-4.3-4-5.7-3.9-8.7a10 10 0 0 1 3.6-7.3 15 15 0 0 1 19 0.27 11 11 0 0 1 3 4.3l4-0.62a15 15 0 0 0-4.4-6.7 18 18 0 0 0-12-4.5 18 18 0 0 0-12 4.4 14 14 0 0 0-4.8 9.9c-0.18 4.1 1.7 8.3 5 12 3.5 3.6 7.5 4.5 11 5.4 3.2 0.79 6.4 1.5 9.8 4a12 12 0 0 1 5.2 9.7 14 14 0 0 1-4.3 11 15 15 0 0 1-19 0.27 11 11 0 0 1-4.1-7.2l-4 0.61a16 16 0 0 0 5.4 9.7 19 19 0 0 0 12 4.2h0.44a18 18 0 0 0 12-4.4l0.53-0.53a18 18 0 0 0 5.4-14zm46-44h-39v4h18v58h4v-58h18zm35 63h-1.1a30 30 0 0 1-21-9.4 33 33 0 0 1 0-45 30 30 0 0 1 21-9.4h1.1a30 30 0 0 1 21 9.4 33 33 0 0 1 0 45 30 30 0 0 1-21 9.4zm-0.62-60c-15 0.35-26 13-26 28s12 28 26 28c15-0.35 26-13 26-28s-12-28-26-28zm90 45a27 27 0 0 1-21 12c-15-0.35-26-13-26-28s12-27 26-28a27 27 0 0 1 21 12l3.7-1.7a27 27 0 0 0-3.7-4.6 30 30 0 0 0-21-9.3h-1.2a30 30 0 0 0-21 9.3 32 32 0 0 0 0 45 30 30 0 0 0 21 9.3h1.2a30 30 0 0 0 21-9.3 27 27 0 0 0 3.7-4.6zm22-17 31-30h-5.7l-28 27v-27h-4v62h4v-29l29 29h5.6z" style="fill:none;stroke-miterlimit:5.5;stroke-width:3px;stroke:#8a5e26"/>
  <path d="m163 346-20 56-20-56h-4.2l9.6 27-10 29-20-56h-4.2l22 62h4.1l10-29 10 29h4.2l22-62zm16 58v-19h24v-4h-24v-31h31v-4h-35v62h36v-4zm63-58-24 62h4.3l4.7-12c3.1 1.2 8.5 2.7 17 2.7s13-1.4 16-2.6l4.8 12h4.3l-24-62zm1.6 48a42 42 0 0 1-13-1.8c-0.7-0.18-1.3-0.44-1.8-0.62l15-38 15 39c-2.6 1-7.6 2.4-15 2.4m41-49h-4v62h33v-4h-29zm68 0.09h-39v4h18v58h4v-58h18zm50 27a32 32 0 0 1-3.6 1.4 49 49 0 0 1-15 2.1c-10 0-16-2.5-19-3.5v-27h-4v62h4v-30c3.4 1.3 9.4 3.1 19 3.1s15-1.8 19-3.1v30h4v-62h-4z" style="fill:#8a5e26"/>
  <path d="m163 346-20 56-20-56h-4.2l9.6 27-10 29-20-56h-4.2l22 62h4.1l10-29 10 29h4.2l22-62zm16 58v-19h24v-4h-24v-31h31v-4h-35v62h36v-4zm63-58-24 62h4.3l4.7-12c3.1 1.2 8.5 2.7 17 2.7s13-1.4 16-2.6l4.8 12h4.3l-24-62zm1.6 48a42 42 0 0 1-13-1.8c-0.7-0.18-1.3-0.44-1.8-0.62l15-38 15 39c-2.6 1-7.6 2.4-15 2.4m41-49h-4v62h33v-4h-29zm68 0.09h-39v4h18v58h4v-58h18zm50 27a32 32 0 0 1-3.6 1.4 49 49 0 0 1-15 2.1c-10 0-16-2.5-19-3.5v-27h-4v62h4v-30c3.4 1.3 9.4 3.1 19 3.1s15-1.8 19-3.1v30h4v-62h-4z" style="fill:none;stroke-miterlimit:10;stroke-width:3px;stroke:#8a5e26"/>
  <path d="m163 346-20 56-20-56h-4.2l9.6 27-10 29-20-56h-4.2l22 62h4.1l10-29 10 29h4.2l22-62zm16 58v-19h24v-4h-24v-31h31v-4h-35v62h36v-4zm63-58-24 62h4.3l4.7-12c3.1 1.2 8.5 2.7 17 2.7s13-1.4 16-2.6l4.8 12h4.3l-24-62zm1.6 48a42 42 0 0 1-13-1.8c-0.7-0.18-1.3-0.44-1.8-0.62l15-38 15 39c-2.6 1-7.6 2.4-15 2.4zm41-49h-4v62h33v-4h-29zm68 0.09h-39v4h18v58h4v-58h18zm50 27a32 32 0 0 1-3.6 1.4 49 49 0 0 1-15 2.1c-10 0-16-2.5-19-3.5v-27h-4v62h4v-30c3.4 1.3 9.4 3.1 19 3.1s15-1.8 19-3.1v30h4v-62h-4z" style="fill:none;stroke-miterlimit:5.5;stroke-width:3px;stroke:#8a5e26"/>
  <path d="m66 458h-1.4v-22l0.51-0.16c0.28-0.06 7.1-2.1 11 0.69 1.7 1.3 2.5 3.2 2.5 5.8s-0.84 4.6-2.5 5.8c-3.1 2.3-8 1.4-10 0.95zm0-9.9c1.5 0.41 6.4 1.4 9.1-0.63 1.3-0.94 2-2.5 2-4.7s-0.63-3.7-2-4.6c-2.7-2-7.6-1-9.1-0.63zm46 0.66c1.7-1.3 2.5-3.2 2.5-5.9s-0.85-4.6-2.5-5.9c-3.9-2.8-11-0.75-11-0.66l-0.51 0.16v21h1.4v-8.3a18 18 0 0 0 5.4 0.54l4.6 7.8h1.7l-4.7-8a8.1 8.1 0 0 0 3-1.3m-10-0.56v-11c1.5-0.41 6.4-1.4 9.1 0.6a6.7 6.7 0 0 1 0 9.4c-2.7 2-7.6 1-9.1 0.6m35 9.8h1.4v-22h-1.4zm41-11a11 11 0 0 0-11-11h-6.6v22h6.6a11 11 0 0 0 11-11m-11 9.6h-5.2v-19h5.2a9.6 9.6 0 1 1 0 19m34 0v-6.7h8.5v-1.4h-8.5v-11h11v-1.4h-13v22h13v-1.4zm32 1.4h1.8v-1.8h-1.8zm35-21v-1.4h-13v22h1.4v-8.1h8.5v-1.4h-8.5v-11zm26-1.4-8.6 22h1.6l1.7-4.3a19 19 0 0 0 12 0l1.7 4.3h1.5l-8.7-22zm0.57 17a15 15 0 0 1-4.7-0.66c-0.25-0.07-0.47-0.16-0.66-0.22l5.3-14 5.4 14a15 15 0 0 1-5.4 0.85m42-4.4c1.7-1.3 2.5-3.2 2.5-5.9s-0.84-4.6-2.5-5.9c-3.9-2.8-11-0.75-11-0.66l-0.5 0.16v22h1.4v-8.3a18 18 0 0 0 5.4 0.54l4.6 7.8h1.7l-4.7-8a8.1 8.1 0 0 0 3-1.3m-10-0.56v-11c1.5-0.41 6.4-1.4 9.1 0.6a6.7 6.7 0 0 1 0 9.4c-2.7 2-7.6 1-9.1 0.6m54-12v22h-1.4v-19l-8.1 10-8.5-10v19h-1.4v-22h1.1l8.7 11 8.4-11zm22 22h1.4v-22h-1.4zm40-22v22h-1l-13-19v19h-1.4v-22h1.1l13 19v-19zm40 12h-8.5v1.4h7v4.1a9.4 9.4 0 0 1-6.5 2.9 10 10 0 0 1 0-20 9.4 9.4 0 0 1 6.6 3l1.2-0.86-0.19-0.19a11 11 0 0 0-7.4-3.3h-0.41a11 11 0 0 0-7.4 3.3 12 12 0 0 0 0 16 11 11 0 0 0 7.4 3.3h0.41a11 11 0 0 0 6.3-2.4c0.37-0.31 0.72-0.63 1.1-1l0.41-0.44zm21 9.6h1.9v-1.8h-1.9zm44-22-7.1 20-7.1-20h-1.5l3.4 9.7-3.6 10-7.1-20h-1.5l7.9 22h1.5l3.6-10 3.7 10h1.5l7.9-22zm24 21v-6.7h8.5v-1.4h-8.5v-11h11v-1.4h-12v22h13v-1.4zm41-21-8.6 22h1.6l1.7-4.3a19 19 0 0 0 12 0l1.7 4.3h1.5l-8.7-22zm0.57 17a15 15 0 0 1-4.7-0.66c-0.25-0.07-0.47-0.16-0.66-0.22l5.3-14 5.4 14a15 15 0 0 1-5.4 0.85m32-17h-1.4v22h12v-1.4h-10zm42 0h-14v1.4h6.3v21h1.4v-21h6.3zm36 9.8a12 12 0 0 1-1.3 0.5 17 17 0 0 1-5.4 0.76 15 15 0 0 1-6.6-1.3v-9.8h-1.4v22h1.4v-11a18 18 0 0 0 6.6 1.1 18 18 0 0 0 6.7-1.1v11h1.4v-22h-1.4z" style="fill:#8a5e26"/>
  <path d="m66 458h-1.4v-22l0.51-0.16c0.28-0.06 7.1-2.1 11 0.69 1.7 1.3 2.5 3.2 2.5 5.8s-0.84 4.6-2.5 5.8c-3.1 2.3-8 1.4-10 0.95zm0-9.9c1.5 0.41 6.4 1.4 9.1-0.63 1.3-0.94 2-2.5 2-4.7s-0.63-3.7-2-4.6c-2.7-2-7.6-1-9.1-0.63zm46 0.66c1.7-1.3 2.5-3.2 2.5-5.9s-0.85-4.6-2.5-5.9c-3.9-2.8-11-0.75-11-0.66l-0.51 0.16v21h1.4v-8.3a18 18 0 0 0 5.4 0.54l4.6 7.8h1.7l-4.7-8a8.1 8.1 0 0 0 3-1.3m-10-0.56v-11c1.5-0.41 6.4-1.4 9.1 0.6a6.7 6.7 0 0 1 0 9.4c-2.7 2-7.6 1-9.1 0.6m35 9.8h1.4v-22h-1.4zm41-11a11 11 0 0 0-11-11h-6.6v22h6.6a11 11 0 0 0 11-11m-11 9.6h-5.2v-19h5.2a9.6 9.6 0 1 1 0 19m34 0v-6.7h8.5v-1.4h-8.5v-11h11v-1.4h-13v22h13v-1.4zm32 1.4h1.8v-1.8h-1.8zm35-21v-1.4h-13v22h1.4v-8.1h8.5v-1.4h-8.5v-11zm26-1.4-8.6 22h1.6l1.7-4.3a19 19 0 0 0 12 0l1.7 4.3h1.5l-8.7-22zm0.57 17a15 15 0 0 1-4.7-0.66c-0.25-0.07-0.47-0.16-0.66-0.22l5.3-14 5.4 14a15 15 0 0 1-5.4 0.85m42-4.4c1.7-1.3 2.5-3.2 2.5-5.9s-0.84-4.6-2.5-5.9c-3.9-2.8-11-0.75-11-0.66l-0.5 0.16v22h1.4v-8.3a18 18 0 0 0 5.4 0.54l4.6 7.8h1.7l-4.7-8a8.1 8.1 0 0 0 3-1.3m-10-0.56v-11c1.5-0.41 6.4-1.4 9.1 0.6a6.7 6.7 0 0 1 0 9.4c-2.7 2-7.6 1-9.1 0.6m54-12v22h-1.4v-19l-8.1 10-8.5-10v19h-1.4v-22h1.1l8.7 11 8.4-11zm22 22h1.4v-22h-1.4zm40-22v22h-1l-13-19v19h-1.4v-22h1.1l13 19v-19zm40 12h-8.5v1.4h7v4.1a9.4 9.4 0 0 1-6.5 2.9 10 10 0 0 1 0-20 9.4 9.4 0 0 1 6.6 3l1.2-0.86-0.19-0.19a11 11 0 0 0-7.4-3.3h-0.41a11 11 0 0 0-7.4 3.3 12 12 0 0 0 0 16 11 11 0 0 0 7.4 3.3h0.41a11 11 0 0 0 6.3-2.4c0.37-0.31 0.72-0.63 1.1-1l0.41-0.44zm21 9.6h1.9v-1.8h-1.9zm44-22-7.1 20-7.1-20h-1.5l3.4 9.7-3.6 10-7.1-20h-1.5l7.9 22h1.5l3.6-10 3.7 10h1.5l7.9-22zm24 21v-6.7h8.5v-1.4h-8.5v-11h11v-1.4h-12v22h13v-1.4zm41-21-8.6 22h1.6l1.7-4.3a19 19 0 0 0 12 0l1.7 4.3h1.5l-8.7-22zm0.57 17a15 15 0 0 1-4.7-0.66c-0.25-0.07-0.47-0.16-0.66-0.22l5.3-14 5.4 14a15 15 0 0 1-5.4 0.85m32-17h-1.4v22h12v-1.4h-10zm42 0h-14v1.4h6.3v21h1.4v-21h6.3zm36 9.8a12 12 0 0 1-1.3 0.5 17 17 0 0 1-5.4 0.76 15 15 0 0 1-6.6-1.3v-9.8h-1.4v22h1.4v-11a18 18 0 0 0 6.6 1.1 18 18 0 0 0 6.7-1.1v11h1.4v-22h-1.4z" style="fill:none;stroke-miterlimit:10;stroke-width:2px;stroke:#8a5e26"/>
 </g>
</svg>
