<svg version="1.1" viewBox="0 0 203 203" xmlns="http://www.w3.org/2000/svg">
 <defs>
  <style>.cls-1{fill:#785a2b;}</style>
 </defs>
 <g data-name="Layer 2">
  <g data-name="Layer 1">
   <path class="cls-1" d="m203 102a102 102 0 1 0-102 102 102 102 0 0 0 102-102m-4.6 0a97 97 0 1 1-97-97 97 97 0 0 1 97 97"/>
   <path class="cls-1" d="m102 13h20a24 24 0 0 1 13 4.5c2.8 1.8 5.6 3.6 8.4 5.4 3.2 2.1 6.5 4.2 9.8 6.3 2.6 1.7 5.2 3.3 7.8 4.9 2 1.2 4 2.5 5.9 3.8a23 23 0 0 1 4.5 4.4 21 21 0 0 1 2.7 4.6c1.1 2.5 2.3 5.1 3.5 7.6q2.2 4.8 4.4 9.6c0.52 1.1 1.1 2.2 1.6 3.3 0.67 1.5 1.3 3 2 4.4s1.4 3.1 2.1 4.7c0.82 1.8 1.6 3.6 2.5 5.4a31 31 0 0 1 1.4 4.9 18 18 0 0 1 0.25 5.8c-0.09 1.6-0.53 3.2-0.78 4.7-0.32 1.8-0.57 3.5-0.84 5.3s-0.55 3.8-0.8 5.7c-0.21 1.6-0.4 3.2-0.62 4.7s-0.51 3.1-0.72 4.7-0.43 3.2-0.67 4.8c-0.37 2.5-0.77 5-1.2 7.5a39 39 0 0 1-0.69 3.9 21 21 0 0 1-1.1 3.2c-1.6 3.9-4.7 6.7-7.3 9.8-3 3.5-6 7-9 10l-7.3 8.4c-2.1 2.4-4.2 5-6.5 7.2a18 18 0 0 1-7.6 4.6c-2.1 0.64-4.2 1.2-6.3 1.9-2.4 0.72-4.8 1.5-7.2 2.2s-4.6 1.3-6.9 2c-2.9 0.85-5.7 1.7-8.6 2.6-1.9 0.55-3.8 1.1-5.7 1.6s-4 1.1-6 1.6h-0.06a16 16 0 0 1-3.1 0.41 22 22 0 0 1-4.4-0.66c-2.2-0.53-4.3-1.2-6.5-1.8-1.7-0.49-3.4-0.95-5.1-1.4-2-0.58-3.9-1.2-5.8-1.8s-3.8-1-5.7-1.6c-1.1-0.31-2.1-0.68-3.2-1-1.5-0.45-3-0.87-4.6-1.3-1-0.29-2-0.62-3-0.89-1.2-0.35-2.4-0.63-3.6-1a23 23 0 0 1-8.6-4.2 49 49 0 0 1-4.4-4.3c-2.4-2.7-4.8-5.5-7.2-8.2-2-2.3-3.9-4.6-5.9-6.9s-3.8-4.3-5.7-6.5c-2.2-2.5-4.4-5-6.5-7.6a20 20 0 0 1-2.9-5.8 28 28 0 0 1-1.1-5.8c-0.51-3.3-0.94-6.6-1.4-9.9-0.31-2.2-0.62-4.3-0.95-6.5-0.35-2.3-0.75-4.6-1.1-7-0.4-2.8-0.74-5.5-1.1-8.3-0.33-2.3-0.72-4.6-1-6.9a5.2 5.2 0 0 1 0.21-1.3c0.14-1 0.26-2 0.37-3a20 20 0 0 1 2.2-6.3c0.92-1.9 1.7-3.9 2.6-5.8 0.79-1.8 1.6-3.5 2.4-5.3s1.7-3.8 2.6-5.7c0.65-1.4 1.4-2.8 2-4.2 0.88-1.9 1.7-3.9 2.6-5.8 0.65-1.4 1.3-2.8 2-4.2 0.51-1.1 1-2.2 1.5-3.3a20 20 0 0 1 3.1-4.5 24 24 0 0 1 5.9-4.8c3.5-2.2 7-4.5 10-6.7 3.2-2 6.4-4 9.6-6.1 1.5-1 3-2 4.5-3 2.7-1.7 5.4-3.5 8.2-5.1a32 32 0 0 1 4.4-1.5c2.6-1 5.3-0.77 7.9-0.78h17m54 34c0-0.75 0.06-1.5 0-2.2a5.8 5.8 0 0 0-1.1-3.3c-0.94-1.1-2.9-0.95-3.4 0.32-0.31 0.82-0.56 1.7-0.91 2.5a35 35 0 0 1-1.6 3.3 19 19 0 0 1-4.1 5c-2 1.7-4 3.4-6 5a33 33 0 0 1-7.6 4.1c-0.41 0.18-1 0.51-1.3 0a2 2 0 0 0-1.7-1 25 25 0 0 0-4.4-0.36c-2.9 0.16-5.7 0.69-8.6 0.66a25 25 0 0 1-7.5-1.2 29 29 0 0 0-4.1-0.88 4.1 4.1 0 0 0-3.1 0.83 7.6 7.6 0 0 1-3.6 1.5c-0.64 0.07-1.2 0.3-1.9 0.36-1.3 0.11-2.6 0.2-3.8 0.19-1.6 0-3.1-0.25-4.7-0.22s-3.3 0.26-5 0.43a24 24 0 0 0-2.7 0.37c-0.57 0.12-1.1 0.44-1.7 0.61a2.5 2.5 0 0 1-1.2 0.2 5.5 5.5 0 0 1-1.6-0.57 37 37 0 0 1-7.3-4.4 29 29 0 0 1-9.3-12c-0.75-1.9-1.4-2.3-3.5-2.2a1.8 1.8 0 0 0-0.33 0 3.7 3.7 0 0 0-2.8 2.4 19 19 0 0 0 0.75 8.6 30 30 0 0 0 2.1 4.8 26 26 0 0 0 5 6.7 80 80 0 0 0 6 5.3 20 20 0 0 0 6 3.4 1 1 0 0 1 0.55 0.7 7.2 7.2 0 0 0 0.88 2.5 2.8 2.8 0 0 1-0.1 3.1 9.7 9.7 0 0 0-1.4 1.9c-0.68 1.6-1.3 3.2-1.9 4.8-0.45 1.2-0.53 1.4-1.9 1.2-1.8-0.15-3.7-0.34-5.5-0.51a8.8 8.8 0 0 0-4.3 0.89 17 17 0 0 0-4.3 3c-3.5 3.1-7 6.1-10 9.3-1.7 1.5-3.2 3.1-4.8 4.8a21 21 0 0 0-3.8 6.2 6.6 6.6 0 0 0-0.35 5.6 3.2 3.2 0 0 0 1.4 1.6 9.3 9.3 0 0 0 3.5 1 22 22 0 0 0 6.5-0.29 34 34 0 0 1 8.2-0.58 54 54 0 0 0 5.9 0c1.2-0.07 2.5-0.45 3.8-0.65a9 9 0 0 0 4.4-2 25 25 0 0 0 4.7-5.1c0.24-0.34 0.52-0.8 1-0.56 0.25 0.12 0.4 0.6 0.43 0.93 0.2 2.4 0.3 4.9 0.54 7.4 0.21 2.2 0.54 4.5 0.9 6.7 0.32 2 0.86 4 1 6a9.6 9.6 0 0 1-1.7 5.9 20 20 0 0 0-1.3 2.4c-0.34 0.75-0.5 1.6-0.8 2.4-0.65 1.6-1.4 3.3-2 4.9a6.7 6.7 0 0 0-0.52 4 31 31 0 0 0 1.1 3.5 14 14 0 0 1 1.1 4.3 2.2 2.2 0 0 0 3.1 2.1c1.5-0.54 2.9-0.12 4.4 0.2a1.5 1.5 0 0 1 0.57 0.45c0.7 0.77 1.4 1.6 2.1 2.3a5.8 5.8 0 0 0 4.7 1.6c1.9-0.08 3.8-0.14 5.7-0.19a32 32 0 0 0 3.4-0.11c1.6-0.22 3.3-0.37 4.6-1.5a16 16 0 0 0 2-2.2 1.8 1.8 0 0 1 1.4-0.87c0.72 0 1.5-0.07 2.2-0.13 1.5-0.13 3-0.55 3.7-2.1a12 12 0 0 0 0.79-2.7 6 6 0 0 1 2.2-3.6c1.2-1 2.5-2.1 3.6-3.3 2.8-2.8 4.5-6.3 6.2-9.7a30 30 0 0 0 2.6-12c0.18-2.6 0.4-5.1 0.76-7.7 0.41-2.9 1-5.7 1.5-8.5 0-0.2 0.32-0.37 0.51-0.56 0.15 0.2 0.42 0.37 0.46 0.59a6 6 0 0 0 3 4.2 34 34 0 0 0 5 2.1 14 14 0 0 0 5.4 0.89c1.2-0.08 2.4-0.23 3.6-0.36a21 21 0 0 1 6.6 0.39c1.7 0.34 3.4 0.83 5.1 0.4a15 15 0 0 1 5-0.62 0.34 0.34 0 0 0 0.2 0 7.1 7.1 0 0 0 1.9-1.1 3.5 3.5 0 0 0 0.7-2.7 13 13 0 0 0-2.1-5.3 60 60 0 0 0-3.7-5.4 50 50 0 0 0-4.2-4.9c-1.7-1.7-3.5-3.3-5.3-5-2.1-1.9-4.2-3.8-6.2-5.7a5.7 5.7 0 0 0-1.4-0.88 7.4 7.4 0 0 0-3.5-0.43 1.2 1.2 0 0 1-1.2-0.68c-0.45-0.86-1-1.7-1.4-2.5a8.7 8.7 0 0 0-3.1-3.3 4.9 4.9 0 0 1-1-1c-0.67-0.79-0.73-1.3-0.11-2.1 0.9-1.2 1.9-2.3 2.8-3.5a2.9 2.9 0 0 1 0.67-0.54c2.5-1.6 5.1-3 7.5-4.7a39 39 0 0 0 5.2-4.3 26 26 0 0 0 7-12 27 27 0 0 0 1-7.6m-35-32a0.44 0.44 0 0 1 0 0.15h-0.52a1.2 1.2 0 0 0-1.4 1.1 1.2 1.2 0 0 0 1.2 1.3l1.4 0.05a1.3 1.3 0 0 0 1.2-0.86 0.88 0.88 0 0 0-0.37-1.2 7.2 7.2 0 0 0-1.5-0.55m-65 157a1.6 1.6 0 0 0-1.5-1.3 1.3 1.3 0 0 0-1.3 1.2 1.6 1.6 0 0 0 1.5 1.4 1.4 1.4 0 0 0 1.2-1.3m-22-127a1.3 1.3 0 0 0 1.2 1.3 1.5 1.5 0 0 0 1.3-1.5 1.2 1.2 0 0 0-1.2-1.2 1.5 1.5 0 0 0-1.4 1.4m143 96a1.3 1.3 0 0 0-1.2-1.3 1.8 1.8 0 0 0-1.4 1.5 1.4 1.4 0 0 0 1.2 1.3 1.6 1.6 0 0 0 1.4-1.5m-80 45a1.3 1.3 0 0 0 1.3-1.2 1.5 1.5 0 0 0-1.5-1.2 1.3 1.3 0 0 0-1.4 1.2 1.5 1.5 0 0 0 1.5 1.2m-46-16a1.3 1.3 0 0 0 1.2-1.2 1.6 1.6 0 0 0-1.5-1.4 1.1 1.1 0 0 0-1.1 1.2 1.4 1.4 0 0 0 1.4 1.4m116-17a1.8 1.8 0 0 0 1.4-1.5 1.6 1.6 0 0 0-1.3-1.2 1.5 1.5 0 0 0-1.3 1.5 1.3 1.3 0 0 0 1.3 1.2m-135-7.2a1.6 1.6 0 0 0-1.4-1.5 1.4 1.4 0 0 0-1.2 1.3 1.8 1.8 0 0 0 1.5 1.5 1.3 1.3 0 0 0 1.2-1.2m117 24a1.5 1.5 0 0 0-1.5 1.3 1.3 1.3 0 0 0 1.2 1.3 2 2 0 0 0 1.6-1.4 1.3 1.3 0 0 0-1.2-1.2m-86 6.5a1.3 1.3 0 0 0 1.3-1.1 1.6 1.6 0 0 0-1.5-1.4 1.3 1.3 0 0 0-1.2 1.3 1.4 1.4 0 0 0 1.5 1.2m115-112a1.7 1.7 0 0 0-1.3-1.6 1.3 1.3 0 0 0-1.3 1.3 1.6 1.6 0 0 0 1.3 1.5 1.4 1.4 0 0 0 1.3-1.2m-88 118a1.5 1.5 0 0 0-1.4-1.4 1.4 1.4 0 0 0-1.3 1.2 1.7 1.7 0 0 0 1.4 1.3 1.4 1.4 0 0 0 1.3-1.2m-9.7-165a1.3 1.3 0 0 0 1.4-1.2 1.3 1.3 0 0 0-1.2-1.3 1.4 1.4 0 0 0-1.5 1.3 1.2 1.2 0 0 0 1.3 1.1m-46 31a1.4 1.4 0 0 0-1.2-1.3 1.6 1.6 0 0 0-1.3 1.5 1.4 1.4 0 0 0 1.2 1.4 1.6 1.6 0 0 0 1.4-1.5m152 40a1.2 1.2 0 0 0 1.2 1.3 1.2 1.2 0 0 0 1.3-1.2 1.4 1.4 0 0 0-1.4-1.4 1.2 1.2 0 0 0-1.2 1.3m-101 91a1.3 1.3 0 0 0-1.3 1.2c0 0.59 0.87 1.4 1.6 1.3a1.5 1.5 0 0 0 1.2-1.3 1.4 1.4 0 0 0-1.5-1.3m-67-68c0 0.85 0.46 1.4 1.1 1.4a1.3 1.3 0 0 0 1.4-1.3 1.4 1.4 0 0 0-1.4-1.4 1.3 1.3 0 0 0-1.1 1.3m0.92-35a1.3 1.3 0 0 0 1.2 1.3 1.5 1.5 0 0 0 1.3-1.5 1.2 1.2 0 0 0-1.2-1.2 1.4 1.4 0 0 0-1.4 1.4m147-36a1.5 1.5 0 0 0-1.5-1.4 1.3 1.3 0 0 0-1.2 1.3 1.6 1.6 0 0 0 1.5 1.3 1.2 1.2 0 0 0 1.1-1.3m-138 19a1.5 1.5 0 0 0-1.4 1.6 1.2 1.2 0 0 0 1.2 1.2 1.6 1.6 0 0 0 1.4-1.6 1.3 1.3 0 0 0-1.2-1.2m53 122a1.2 1.2 0 0 0 1.3-1.1 1.6 1.6 0 0 0-1.5-1.4 1.3 1.3 0 0 0-1.2 1.3c0 0.68 0.61 1.2 1.5 1.2m-32-17a1.3 1.3 0 0 0-1.2 1.2 1.6 1.6 0 0 0 1.4 1.4 1.4 1.4 0 0 0 1.3-1.2 1.5 1.5 0 0 0-1.5-1.4m94-139a1.3 1.3 0 0 0-1.3 1.2 1.6 1.6 0 0 0 1.5 1.4 1.3 1.3 0 0 0 1.3-1.2 1.5 1.5 0 0 0-1.5-1.3m-69-5.6a1.3 1.3 0 0 0-1.2-1.2 1.8 1.8 0 0 0-1.5 1.4 1.4 1.4 0 0 0 1.2 1.2 1.7 1.7 0 0 0 1.5-1.4m82 147a1.6 1.6 0 0 0 1.3-1.4 1.3 1.3 0 0 0-1.2-1.2 1.7 1.7 0 0 0-1.4 1.6 1.3 1.3 0 0 0 1.3 1.1m-117-123a1.6 1.6 0 0 0 1.5-1.4 1.3 1.3 0 0 0-1.3-1.2 1.5 1.5 0 0 0-1.4 1.4 1.2 1.2 0 0 0 1.3 1.2m-20 67c0.73 0 1.2-0.5 1.2-1.4a1.5 1.5 0 0 0-1.3-1.4 1.3 1.3 0 0 0-1.2 1.2 1.4 1.4 0 0 0 1.2 1.5m165 2.2a1.2 1.2 0 0 0 1.2 1.2 1.4 1.4 0 0 0 1.3-1.4 1.4 1.4 0 0 0-1.3-1.3 1.4 1.4 0 0 0-1.2 1.5m-3 26a1.2 1.2 0 0 0-1.2-1.2 1.6 1.6 0 0 0-1.4 1.4 1.5 1.5 0 0 0 1.2 1.3c0.55 0 1.4-0.92 1.4-1.6m-158-16a1.4 1.4 0 0 0-1.3-1.4 1.4 1.4 0 0 0-1.2 1.4 1.4 1.4 0 0 0 1.2 1.3 1.4 1.4 0 0 0 1.3-1.3m160 12a1.3 1.3 0 0 0-1.2-1.3 1.5 1.5 0 0 0-1.3 1.4 1.4 1.4 0 0 0 1.2 1.4 1.5 1.5 0 0 0 1.3-1.4m-158 0.93a1.3 1.3 0 0 0-1.4-1.4 1.2 1.2 0 0 0-1.1 1.2 1.6 1.6 0 0 0 1.4 1.6 1.3 1.3 0 0 0 1.1-1.4m161-30a1.4 1.4 0 0 0 1.2-1.5 1.3 1.3 0 0 0-1.2-1.3 1.4 1.4 0 0 0-1.2 1.6 1.3 1.3 0 0 0 1.3 1.2m-149 47a1.1 1.1 0 0 0-1.3 1.1 1.7 1.7 0 0 0 1.4 1.4 1.3 1.3 0 1 0-0.13-2.6m-14-21a1.5 1.5 0 0 0-1.3-1.5 1.4 1.4 0 0 0 0.13 2.8 1.4 1.4 0 0 0 1.2-1.3m-5.8-49a1.3 1.3 0 0 0 1.2 1.3 1.4 1.4 0 0 0 1.3-1.5 1.2 1.2 0 0 0-1.2-1.2 1.4 1.4 0 0 0-1.3 1.4m169-0.75a1.5 1.5 0 0 0-1.3-1.5 1.4 1.4 0 0 0-1.3 1.2 1.6 1.6 0 0 0 1.4 1.5 1.3 1.3 0 0 0 1.2-1.2m-54 98a1.6 1.6 0 0 0 1.6-1.3 1.4 1.4 0 0 0-1.3-1.2 1.5 1.5 0 0 0-1.6 1.2 1.3 1.3 0 0 0 1.2 1.2m-30 5.6a1.4 1.4 0 0 0-1.5 1.1 1.5 1.5 0 0 0 1.4 1.4 1.3 1.3 0 0 0 1.4-1.3 1.2 1.2 0 0 0-1.3-1.2m52-151a1.9 1.9 0 0 0-1.6-1.5 1.4 1.4 0 0 0-1.2 1.3 1.6 1.6 0 0 0 1.4 1.3 1.5 1.5 0 0 0 1.3-1.2m14 11a1.3 1.3 0 0 0-1.3-1.4 1.2 1.2 0 0 0-1.3 1.2 1.6 1.6 0 0 0 1.4 1.4 1.1 1.1 0 0 0 1.2-1.2m-91-27a1.2 1.2 0 0 0-1.2-1.2 1.3 1.3 0 0 0-1.4 1.2 1.2 1.2 0 0 0 1.2 1.3 1.5 1.5 0 0 0 1.5-1.4m34-2.4a1.5 1.5 0 0 0-1.5 1.2 1.5 1.5 0 0 0 1.5 1.3 1.4 1.4 0 0 0 1.3-1.2 1.2 1.2 0 0 0-1.3-1.2m61 37a1.6 1.6 0 0 0-1.4-1.5 1.2 1.2 0 0 0-1.2 1.2 1.7 1.7 0 0 0 1.3 1.5 1.5 1.5 0 0 0 1.3-1.3m-51 128a1.2 1.2 0 0 0 1.2 1.3 1.6 1.6 0 0 0 1.5-1.3 1.4 1.4 0 0 0-1.3-1.2 1.4 1.4 0 0 0-1.5 1.3m60-102a1.3 1.3 0 0 0 1.2-1.2 1.6 1.6 0 0 0-1.4-1.5 1.4 1.4 0 0 0-1.2 1.2 1.5 1.5 0 0 0 1.4 1.4m-164 26a1.3 1.3 0 0 0-1.3-1.4 1.3 1.3 0 0 0-1.2 1.2 1.5 1.5 0 0 0 1.3 1.5 1.3 1.3 0 0 0 1.2-1.3m163-31a1.4 1.4 0 0 0-1.2-1.5 1.2 1.2 0 0 0-1.4 1.1 1.8 1.8 0 0 0 1.3 1.6 1.4 1.4 0 0 0 1.3-1.2m-160-3.1c0 0.7 0.47 1.1 1.3 1.1a1.4 1.4 0 0 0 1.2-1.4 1.2 1.2 0 0 0-1.2-1.2 1.5 1.5 0 0 0-1.2 1.6m148 80a1.4 1.4 0 0 0 1.4-1.4 1.2 1.2 0 0 0-1.2-1.2 1.4 1.4 0 0 0-1.4 1.5 1 1 0 0 0 1.2 1.1m-55 34c0.75 0 1.6-0.62 1.5-1.2a1.4 1.4 0 0 0-1.2-1.3 1.6 1.6 0 0 0-1.6 1.2 1.3 1.3 0 0 0 1.3 1.3m-48-5.9a1.3 1.3 0 0 0 1.3-1.2 1.5 1.5 0 0 0-1.5-1.2 1.4 1.4 0 0 0-1.2 1.2 1.5 1.5 0 0 0 1.5 1.3m70-1.5a1.4 1.4 0 0 0-1.2-1.3 1.6 1.6 0 0 0-1.5 1.3 1.4 1.4 0 0 0 1.3 1.3 1.5 1.5 0 0 0 1.5-1.2m46-59a1.4 1.4 0 0 0 1.3-1.4 1.5 1.5 0 0 0-1.2-1.3 1.6 1.6 0 0 0-1.3 1.4 1.3 1.3 0 0 0 1.3 1.3m-1.3 8.7a1.4 1.4 0 0 0 0.06-2.7 1.3 1.3 0 0 0-1.2 1.4 1.1 1.1 0 0 0 1.2 1.3m-24-90a1.6 1.6 0 0 0-1.5-1.3 1.2 1.2 0 0 0-1.2 1.1 1.5 1.5 0 0 0 1.4 1.5 1.4 1.4 0 0 0 1.3-1.3m-98 138a1.4 1.4 0 0 0-1.4-1.3 1.4 1.4 0 0 0-1.2 1.3 1.5 1.5 0 0 0 1.4 1.3 1.2 1.2 0 0 0 1.2-1.2m56-159a1.2 1.2 0 0 0-1.3 1.2 1.3 1.3 0 0 0 1.3 1.3 1.4 1.4 0 0 0 1.4-1.3 1.3 1.3 0 0 0-1.4-1.1m16 4.2a1.5 1.5 0 0 0-1.5-1.4 1.3 1.3 0 0 0-1.2 1.3 1.6 1.6 0 0 0 1.5 1.3 1.2 1.2 0 0 0 1.1-1.2m-104 124a1.2 1.2 0 0 0 1.2-1.1 1.6 1.6 0 0 0-1.4-1.4 1.2 1.2 0 0 0-1.3 1.2 1.5 1.5 0 0 0 1.5 1.4m40-123a1.6 1.6 0 0 0-1.4 1.4 1.4 1.4 0 0 0 1.3 1.2 1.7 1.7 0 0 0 1.4-1.4 1.3 1.3 0 0 0-1.3-1.2m91 139a1.5 1.5 0 0 0-1.4 1.5 1.2 1.2 0 0 0 1.2 1.1 1.7 1.7 0 0 0 1.5-1.4 1.4 1.4 0 0 0-1.3-1.2m-19-136a1.3 1.3 0 0 0-1.3-1.3 1.3 1.3 0 0 0-1.3 1.2 1.7 1.7 0 0 0 1.5 1.4 1.2 1.2 0 0 0 1.1-1.3m-100 130a1.3 1.3 0 0 0-1.2 1.2 1.5 1.5 0 0 0 1.5 1.4 1.3 1.3 0 0 0 1.2-1.2 1.6 1.6 0 0 0-1.5-1.4m5.1-118a1.3 1.3 0 0 0 1.2 1.4 1.7 1.7 0 0 0 1.5-1.5 1.2 1.2 0 0 0-1.1-1.2 1.5 1.5 0 0 0-1.6 1.4m-2.5 3.7a1.5 1.5 0 0 0 1.5-1.3 1.2 1.2 0 0 0-1.4-1.2 1.3 1.3 0 0 0-1.3 1.3 1.1 1.1 0 0 0 1.2 1.3m134 22a1.3 1.3 0 0 0 1.3-1.2 1.6 1.6 0 0 0-1.4-1.5 1.3 1.3 0 0 0-1.2 1.3 1.4 1.4 0 0 0 1.3 1.4m9.5 37a1.2 1.2 0 0 0 1.2 1.3 1.3 1.3 0 0 0 1.3-1.4 1.2 1.2 0 1 0-2.5 0.09m-95-83a1.4 1.4 0 0 0-1.4 1.2 1.4 1.4 0 0 0 1.4 1.3 1.5 1.5 0 0 0 1.4-1.2c0-0.59-0.68-1.2-1.4-1.3m13 2.5a1.3 1.3 0 0 0 1.3-1.3 1.3 1.3 0 0 0-1.4-1.2 1.4 1.4 0 0 0-1.4 1.2 1.5 1.5 0 0 0 1.4 1.3m-80 56a1.2 1.2 0 0 0-1.2-1.2 1.3 1.3 0 0 0-1.4 1.4 1.2 1.2 0 0 0 1.2 1.2 1.4 1.4 0 0 0 1.3-1.4m-6.5 11c-0.75 0-1.3 0.51-1.3 1.4a1.3 1.3 0 0 0 1.2 1.3 1.4 1.4 0 0 0 1.4-1.4 1.3 1.3 0 0 0-1.2-1.3m26 76a1.2 1.2 0 0 0 1.3-1.2 1.7 1.7 0 0 0-1.5-1.4 1.2 1.2 0 0 0-1.1 1.2 1.3 1.3 0 0 0 1.4 1.4m123-5.4a1.2 1.2 0 0 0-1.2-1.2 1.7 1.7 0 0 0-1.4 1.3 1.3 1.3 0 0 0 1.2 1.3 1.5 1.5 0 0 0 1.4-1.5m-119 7.7a1.5 1.5 0 0 0-1.4-1.5 1.4 1.4 0 0 0-1.2 1.2 1.6 1.6 0 0 0 1.3 1.5 1.3 1.3 0 0 0 1.2-1.2m14-134a1.4 1.4 0 0 0 1.5-1.4 1.2 1.2 0 0 0-1.2-1.2 1.4 1.4 0 0 0-1.5 1.3 1.3 1.3 0 0 0 1.2 1.2m127 57c0-0.89-0.45-1.4-1.2-1.4a1.3 1.3 0 0 0-1.3 1.2 1.4 1.4 0 0 0 1.3 1.4 1.1 1.1 0 0 0 1.2-1.2m-80-70c-0.93 0-1.4 0.4-1.4 1.2a1.2 1.2 0 0 0 1.3 1.2 1.3 1.3 0 0 0 1.4-1.3 1.2 1.2 0 0 0-1.3-1.2m39 159a1.4 1.4 0 0 0-1.3-1.3 1.8 1.8 0 0 0-1.5 1.4 1.4 1.4 0 0 0 1.2 1.2 1.7 1.7 0 0 0 1.5-1.3m40-81a1.4 1.4 0 0 0-1.2 1.4 1.3 1.3 0 0 0 1.3 1.3 1.5 1.5 0 0 0 1.3-1.4 1.4 1.4 0 0 0-1.3-1.3m-170 0.91a1.2 1.2 0 0 0-1.2 1.2 1.4 1.4 0 0 0 1.3 1.5 1.2 1.2 0 0 0 1.2-1.3c0-0.91-0.51-1.4-1.3-1.4m126 81a1.1 1.1 0 0 0-1.2-1.2c-1 0-1.5 0.44-1.5 1.3a1.3 1.3 0 0 0 1.3 1.2 1.4 1.4 0 0 0 1.3-1.3m-126-76a1.3 1.3 0 0 0 1.2 1.4 1.4 1.4 0 0 0 1.2-1.3 1.4 1.4 0 0 0-1.3-1.4 1.2 1.2 0 0 0-1.2 1.3m168 21a1.3 1.3 0 0 0-1.2-1.3 1.5 1.5 0 0 0-1.3 1.5 1.3 1.3 0 0 0 1.2 1.3 1.4 1.4 0 0 0 1.2-1.5m1.9-13a1.2 1.2 0 0 0-1.1-1.4 1.5 1.5 0 0 0-1.4 1.4 1.4 1.4 0 0 0 1.2 1.3 1.2 1.2 0 0 0 1.2-1.4m-35 61a1.3 1.3 0 0 0 1.1 1.3 1.5 1.5 0 0 0 1.4-1.4 1.4 1.4 0 0 0-1.2-1.4 1.6 1.6 0 0 0-1.4 1.4m-74 11a1.3 1.3 0 0 0-1.4-1.3 1.3 1.3 0 0 0-1.2 1.3 1.4 1.4 0 0 0 1.5 1.2 1.2 1.2 0 0 0 1.1-1.2m7.8-164a1.2 1.2 0 0 0-1.4 1.2 1.3 1.3 0 0 0 1.3 1.3 1.3 1.3 0 0 0 1.4-1.3 1.3 1.3 0 0 0-1.3-1.2m75 143a1.1 1.1 0 0 0 1.1 1.2 1.6 1.6 0 0 0 1.4-1.4 1.3 1.3 0 0 0-1.2-1.3c-0.54 0-1.5 0.75-1.4 1.5m20-90a1.6 1.6 0 0 0-1.3-1.5 1.3 1.3 0 0 0-1.3 1.3 1.5 1.5 0 0 0 1.3 1.4 1.3 1.3 0 0 0 1.3-1.2m-158 57a1.2 1.2 0 0 0-1.2-1.4 1.2 1.2 0 0 0-1.3 1.2 1.3 1.3 0 0 0 1.3 1.4 1.2 1.2 0 0 0 1.2-1.3m35-95a1.4 1.4 0 0 0 1.5-1.3 1.2 1.2 0 0 0-1.2-1.3 1.5 1.5 0 0 0-1.5 1.4 1.2 1.2 0 0 0 1.2 1.1m93 1.9a1.3 1.3 0 0 0 1.3-1.2 1.8 1.8 0 0 0-1.6-1.4 1.4 1.4 0 0 0-1.2 1.2 1.5 1.5 0 0 0 1.5 1.4m-41 153a1.2 1.2 0 0 0-1.2-1.3 1.4 1.4 0 0 0-1.4 1.3c0 0.72 0.44 1.3 1.1 1.2 1-0.06 1.5-0.31 1.5-1.2m52-148a1.2 1.2 0 0 0-1.2 1.2 1.4 1.4 0 0 0 1.4 1.4 1.2 1.2 0 0 0 1.2-1.2 1.6 1.6 0 0 0-1.4-1.4m-139 80a1.2 1.2 0 0 0-1.3-1.3 1.1 1.1 0 0 0-1.2 1.2 1.4 1.4 0 0 0 1.3 1.4 1.2 1.2 0 0 0 1.2-1.3m30-83a1.3 1.3 0 0 0-1.2-1.3 1.5 1.5 0 0 0-1.4 1.4 1.2 1.2 0 0 0 1.2 1.2 1.5 1.5 0 0 0 1.4-1.3m84-14a1.3 1.3 0 0 0-1.2 1.2 1.4 1.4 0 0 0 1.4 1.3 1.3 1.3 0 0 0 1.3-1.2 1.7 1.7 0 0 0-1.5-1.4m-81 13a1.3 1.3 0 0 0 1.4-1.2 1.3 1.3 0 0 0-1.2-1.3 1.5 1.5 0 0 0-1.4 1.4 1.1 1.1 0 0 0 1.2 1.1m93-2.9a1.2 1.2 0 0 0 1.2-1.2 1.5 1.5 0 0 0-1.5-1.3 1.5 1.5 0 0 0-1.2 1.2 1.6 1.6 0 0 0 1.5 1.3m-119 35a1.2 1.2 0 0 0-1.2-1.3 1.5 1.5 0 0 0-1.3 1.4 1.3 1.3 0 0 0 1.2 1.3 1.4 1.4 0 0 0 1.3-1.4m144-17c0-0.67-0.75-1.6-1.3-1.6a1.4 1.4 0 0 0 0 2.7 1.3 1.3 0 0 0 1.3-1.2m-106-24a1.3 1.3 0 0 0-1.2-1.2 1.7 1.7 0 0 0-1.4 1.4 1.3 1.3 0 0 0 1.2 1.2 1.5 1.5 0 0 0 1.4-1.4m-39 114a1.5 1.5 0 0 0-1.4-1.5 1.2 1.2 0 0 0-1.1 1.2 1.5 1.5 0 0 0 1.4 1.5 1.3 1.3 0 0 0 1.1-1.2m86 45a1.3 1.3 0 0 0-1.2-1.2 1.4 1.4 0 0 0-1.5 1.3 1.4 1.4 0 0 0 1.3 1.2 1.5 1.5 0 0 0 1.5-1.3m17-5a1.2 1.2 0 0 0-1.2-1.1 1.4 1.4 0 0 0-1.5 1.2 1.3 1.3 0 0 0 1.3 1.2 1.5 1.5 0 0 0 1.5-1.4m-97-126a1.2 1.2 0 0 0-1.2-1.2 1.5 1.5 0 0 0-1.3 1.5 1.1 1.1 0 0 0 1.2 1.2 1.3 1.3 0 0 0 1.3-1.4m2.8 96a1.5 1.5 0 0 0-1.4-1.4 1.4 1.4 0 0 0-1.2 1.2 1.6 1.6 0 0 0 1.4 1.4 1.3 1.3 0 0 0 1.2-1.2m59-134c-0.83 0-1.4 0.46-1.4 1.1a1.3 1.3 0 0 0 1.4 1.3 1.2 1.2 0 0 0 1.3-1.3 1.1 1.1 0 0 0-1.3-1.2m-64 42a1.1 1.1 0 0 0-1.2-1.2 1.3 1.3 0 0 0-1.3 1.4 1.1 1.1 0 0 0 1.2 1.2 1.3 1.3 0 0 0 1.3-1.4m89 126a1.4 1.4 0 0 0 1.5-1.3 1.2 1.2 0 0 0-1.2-1.2 1.5 1.5 0 0 0-1.5 1.3 1.4 1.4 0 0 0 1.2 1.2m-103-94a1.3 1.3 0 0 0-1.4 1.2 1.6 1.6 0 0 0 1.3 1.5 1.4 1.4 0 0 0 1.3-1.3 1.2 1.2 0 0 0-1.2-1.4m167 40a1.3 1.3 0 0 0-1.3-1.4 1.3 1.3 0 0 0-1.2 1.4 1.4 1.4 0 0 0 1.2 1.3 1.5 1.5 0 0 0 1.3-1.4m-57-111a1.2 1.2 0 0 0 1.3-1.2 1.4 1.4 0 0 0-2.7-0.09 1.4 1.4 0 0 0 1.4 1.3m-28-3.4a1.2 1.2 0 0 0-1.4 1.1 1.3 1.3 0 0 0 1.3 1.4 1.4 1.4 0 0 0 1.4-1.2 1.3 1.3 0 0 0-1.3-1.2m-25 163a1.5 1.5 0 0 0-1.5-1.3 1.2 1.2 0 0 0-1.2 1.2 1.6 1.6 0 0 0 1.6 1.3 1.3 1.3 0 0 0 1.1-1.2m101-33a1.2 1.2 0 0 0-1.2-1.2 1.6 1.6 0 0 0-1.4 1.5 1.3 1.3 0 0 0 1.2 1.2 1.5 1.5 0 0 0 1.3-1.4m-81 40c0.84 0 1.3-0.43 1.3-1.1a1.4 1.4 0 0 0-1.5-1.3 1.2 1.2 0 0 0-1.1 1.2c0 0.78 0.47 1.2 1.3 1.2m81-128a1.2 1.2 0 0 0 1.1-1.2 1.5 1.5 0 0 0-1.4-1.5 1.2 1.2 0 0 0-1.1 1.1 1.4 1.4 0 0 0 1.4 1.5"/>
  </g>
 </g>
</svg>
